<svg xmlns="http://www.w3.org/2000/svg" width="1200" height="420" viewBox="0 0 1200 420">
<rect width="100%" height="100%" fill="white"/>
<text x="24" y="32" font-size="22" font-family="sans-serif">growth_mass</text>
<polyline points="60.0,262.6 63.7,261.3 67.4,261.9 71.0,261.6 74.7,262.9 78.4,263.9 82.1,262.2 85.8,262.0 89.4,264.3 93.1,261.7 96.8,263.5 100.5,262.6 104.1,262.3 107.8,262.5 111.5,262.2 115.2,264.3 118.9,262.4 122.5,262.4 126.2,264.0 129.9,261.1 133.6,263.0 137.3,262.1 140.9,262.4 144.6,261.5 148.3,263.8 152.0,263.1 155.7,263.2 159.3,262.7 163.0,261.6 166.7,262.3 170.4,262.2 174.0,263.7 177.7,263.7 181.4,263.8 185.1,262.0 188.8,262.6 192.4,263.2 196.1,262.5 199.8,261.6 203.5,264.2 207.2,261.8 210.8,263.4 214.5,262.0 218.2,262.5 221.9,261.6 225.6,262.9 229.2,261.5 232.9,262.2 236.6,262.5 240.3,262.1 243.9,216.6 247.6,215.9 251.3,216.3 255.0,216.3 258.7,215.7 262.3,217.0 266.0,215.9 269.7,216.3 273.4,216.3 277.1,217.0 280.7,215.6 284.4,216.1 288.1,215.7 291.8,217.9 295.5,216.7 299.1,216.8 302.8,217.4 306.5,217.0 310.2,216.4 313.8,216.4 317.5,218.5 321.2,216.6 324.9,215.2 328.6,217.2 332.2,215.7 335.9,215.7 339.6,215.5 343.3,215.9 347.0,215.6 350.6,215.3 354.3,216.2 358.0,216.0 361.7,217.0 365.4,215.5 369.0,216.9 372.7,217.4 376.4,216.9 380.1,216.1 383.7,215.3 387.4,217.1 391.1,215.8 394.8,216.3 398.5,214.2 402.1,216.8 405.8,216.9 409.5,216.0 413.2,216.9 416.9,215.9 420.5,215.6 424.2,217.2 427.9,324.2 431.6,325.5 435.3,323.4 438.9,322.7 442.6,325.4 446.3,322.3 450.0,325.5 453.6,323.9 457.3,325.0 461.0,326.3 464.7,323.9 468.4,323.8 472.0,324.7 475.7,323.7 479.4,323.3 483.1,325.5 486.8,322.4 490.4,323.0 494.1,324.3 497.8,323.4 501.5,324.6 505.2,326.6 508.8,323.9 512.5,323.8 516.2,324.4 519.9,322.8 523.5,324.3 527.2,323.8 530.9,322.9 534.6,324.9 538.3,326.6 541.9,322.7 545.6,323.5 549.3,325.2 553.0,323.3 556.7,325.0 560.3,322.9 564.0,323.9 567.7,324.3 571.4,324.1 575.1,326.8 578.7,326.2 582.4,325.8 586.1,325.0 589.8,324.9 593.4,323.5 597.1,324.2 600.8,325.2 604.5,325.7 608.2,322.3 611.8,169.9 615.5,170.9 619.2,171.3 622.9,169.9 626.6,170.1 630.2,171.6 633.9,170.8 637.6,169.6 641.3,172.2 644.9,169.0 648.6,171.3 652.3,170.3 656.0,170.8 659.7,169.6 663.3,171.4 667.0,170.1 670.7,171.3 674.4,169.0 678.1,169.6 681.7,170.1 685.4,169.3 689.1,171.6 692.8,168.7 696.5,171.1 700.1,169.8 703.8,171.7 707.5,170.7 711.2,169.9 714.8,169.0 718.5,170.5 722.2,171.8 725.9,170.0 729.6,169.7 733.2,170.4 736.9,171.1 740.6,170.6 744.3,169.9 748.0,170.4 751.6,170.0 755.3,170.6 759.0,171.0 762.7,172.3 766.4,172.3 770.0,169.8 773.7,170.2 777.4,170.2 781.1,170.9 784.7,168.9 788.4,169.2 792.1,170.3 795.8,51.0 799.5,50.7 803.1,50.6 806.8,50.5 810.5,51.4 814.2,50.7 817.9,50.7 821.5,50.6 825.2,50.6 828.9,50.7 832.6,50.7 836.3,50.8 839.9,50.6 843.6,51.0 847.3,50.2 851.0,51.0 854.6,50.9 858.3,51.0 862.0,51.1 865.7,50.9 869.4,50.8 873.0,50.8 876.7,50.6 880.4,51.1 884.1,50.0 887.8,51.0 891.4,50.7 895.1,50.6 898.8,50.9 902.5,50.8 906.2,50.7 909.8,50.9 913.5,50.7 917.2,51.1 920.9,51.0 924.5,50.8 928.2,50.7 931.9,50.6 935.6,50.5 939.3,50.9 942.9,51.1 946.6,50.8 950.3,50.8 954.0,50.9 957.7,50.8 961.3,50.7 965.0,50.8 968.7,51.0 972.4,51.0 976.1,50.7 979.7,367.0 983.4,368.2 987.1,367.5 990.8,370.0 994.4,368.1 998.1,368.6 1001.8,366.8 1005.5,368.6 1009.2,366.9 1012.8,369.6 1016.5,369.0 1020.2,369.8 1023.9,368.2 1027.6,368.1 1031.2,368.5 1034.9,369.5 1038.6,366.1 1042.3,368.6 1046.0,366.4 1049.6,367.8 1053.3,368.1 1057.0,369.1 1060.7,369.1 1064.3,368.8 1068.0,367.8 1071.7,369.0 1075.4,368.9 1079.1,367.3 1082.7,368.6 1086.4,368.7 1090.1,367.8 1093.8,368.5 1097.5,365.6 1101.1,367.8 1104.8,367.1 1108.5,366.5 1112.2,368.4 1115.9,369.2 1119.5,368.5 1123.2,368.0 1126.9,368.9 1130.6,367.7 1134.2,368.0 1137.9,367.5 1141.6,368.4 1145.3,366.8 1149.0,368.9 1152.6,368.6 1156.3,369.0 1160.0,367.0" fill="none" stroke="#2f7d32" stroke-width="2"/>
<text x="70" y="406" font-size="14" fill="#2f7d32" font-family="sans-serif">R1</text>
<polyline points="60.0,283.9 63.7,283.2 67.4,282.4 71.0,283.8 74.7,284.6 78.4,284.1 82.1,282.5 85.8,283.9 89.4,283.2 93.1,284.2 96.8,284.7 100.5,283.4 104.1,283.9 107.8,284.3 111.5,283.7 115.2,283.9 118.9,283.9 122.5,283.6 126.2,283.1 129.9,284.3 133.6,284.1 137.3,284.0 140.9,283.6 144.6,283.3 148.3,284.0 152.0,283.3 155.7,284.0 159.3,283.7 163.0,283.3 166.7,283.8 170.4,284.4 174.0,284.5 177.7,283.1 181.4,283.2 185.1,283.5 188.8,284.0 192.4,283.5 196.1,284.1 199.8,283.6 203.5,283.6 207.2,283.6 210.8,283.5 214.5,284.4 218.2,283.3 221.9,283.1 225.6,283.2 229.2,284.4 232.9,284.3 236.6,283.7 240.3,282.5 243.9,51.3 247.6,51.4 251.3,50.8 255.0,51.1 258.7,51.4 262.3,51.7 266.0,51.9 269.7,51.5 273.4,51.0 277.1,50.7 280.7,51.0 284.4,50.8 288.1,51.7 291.8,52.5 295.5,50.8 299.1,51.5 302.8,52.8 306.5,51.7 310.2,51.9 313.8,50.8 317.5,52.5 321.2,50.8 324.9,51.4 328.6,51.5 332.2,52.1 335.9,50.4 339.6,51.7 343.3,51.6 347.0,50.0 350.6,51.0 354.3,51.7 358.0,50.9 361.7,50.8 365.4,52.3 369.0,51.0 372.7,51.6 376.4,50.8 380.1,51.6 383.7,51.6 387.4,50.8 391.1,52.2 394.8,52.0 398.5,52.0 402.1,51.7 405.8,50.7 409.5,50.9 413.2,52.4 416.9,52.2 420.5,52.1 424.2,52.4 427.9,245.2 431.6,245.8 435.3,244.6 438.9,245.5 442.6,246.2 446.3,245.7 450.0,245.1 453.6,246.2 457.3,246.7 461.0,246.2 464.7,244.9 468.4,245.3 472.0,245.1 475.7,245.8 479.4,245.8 483.1,245.5 486.8,244.6 490.4,246.3 494.1,245.7 497.8,245.2 501.5,245.7 505.2,244.7 508.8,246.6 512.5,247.4 516.2,245.6 519.9,246.0 523.5,246.1 527.2,244.7 530.9,244.8 534.6,245.6 538.3,246.5 541.9,245.9 545.6,245.0 549.3,245.1 553.0,245.1 556.7,245.7 560.3,245.6 564.0,245.5 567.7,245.1 571.4,245.8 575.1,245.3 578.7,245.3 582.4,245.4 586.1,245.5 589.8,245.0 593.4,245.2 597.1,246.0 600.8,246.1 604.5,246.1 608.2,246.7 611.8,310.5 615.5,309.2 619.2,310.0 622.9,310.7 626.6,311.6 630.2,311.6 633.9,310.9 637.6,310.8 641.3,309.3 644.9,310.1 648.6,310.7 652.3,311.3 656.0,310.4 659.7,309.5 663.3,310.6 667.0,309.7 670.7,310.0 674.4,310.0 678.1,311.5 681.7,310.9 685.4,310.7 689.1,311.1 692.8,311.7 696.5,311.2 700.1,310.0 703.8,309.6 707.5,310.0 711.2,310.5 714.8,310.6 718.5,311.1 722.2,310.5 725.9,311.1 729.6,309.7 733.2,310.4 736.9,309.8 740.6,310.4 744.3,308.6 748.0,310.9 751.6,310.9 755.3,311.4 759.0,311.0 762.7,310.4 766.4,310.2 770.0,310.1 773.7,309.9 777.4,310.4 781.1,309.0 784.7,310.7 788.4,310.4 792.1,309.9 795.8,166.9 799.5,167.3 803.1,166.6 806.8,167.9 810.5,166.1 814.2,167.6 817.9,166.3 821.5,167.1 825.2,167.0 828.9,165.4 832.6,167.2 836.3,167.6 839.9,166.6 843.6,166.9 847.3,167.3 851.0,166.0 854.6,166.6 858.3,166.6 862.0,168.0 865.7,166.5 869.4,168.2 873.0,167.3 876.7,167.4 880.4,167.3 884.1,167.3 887.8,168.0 891.4,167.5 895.1,167.6 898.8,167.2 902.5,167.4 906.2,167.3 909.8,168.0 913.5,167.4 917.2,166.9 920.9,166.2 924.5,167.3 928.2,168.1 931.9,165.4 935.6,168.6 939.3,168.0 942.9,167.5 946.6,167.8 950.3,168.3 954.0,167.0 957.7,167.6 961.3,167.9 965.0,166.9 968.7,167.4 972.4,167.1 976.1,167.1 979.7,369.2 983.4,369.5 987.1,369.2 990.8,369.3 994.4,368.8 998.1,369.3 1001.8,368.8 1005.5,368.7 1009.2,369.8 1012.8,368.2 1016.5,368.7 1020.2,369.0 1023.9,368.7 1027.6,369.6 1031.2,369.6 1034.9,369.6 1038.6,370.0 1042.3,368.5 1046.0,367.7 1049.6,369.0 1053.3,369.1 1057.0,369.1 1060.7,368.9 1064.3,368.9 1068.0,368.7 1071.7,369.6 1075.4,369.1 1079.1,369.3 1082.7,368.3 1086.4,370.0 1090.1,368.9 1093.8,368.9 1097.5,368.9 1101.1,369.0 1104.8,368.3 1108.5,369.3 1112.2,369.0 1115.9,369.1 1119.5,369.9 1123.2,369.1 1126.9,369.4 1130.6,368.1 1134.2,369.9 1137.9,369.8 1141.6,368.8 1145.3,369.5 1149.0,369.5 1152.6,368.3 1156.3,368.7 1160.0,368.1" fill="none" stroke="#1976d2" stroke-width="2"/>
<text x="230" y="406" font-size="14" fill="#1976d2" font-family="sans-serif">R2</text>
<polyline points="60.0,217.5 63.7,217.4 67.4,218.3 71.0,217.9 74.7,217.2 78.4,216.8 82.1,218.0 85.8,218.4 89.4,218.5 93.1,217.6 96.8,216.9 100.5,218.1 104.1,217.4 107.8,216.9 111.5,217.4 115.2,217.7 118.9,217.6 122.5,217.7 126.2,216.8 129.9,217.8 133.6,218.1 137.3,218.2 140.9,217.2 144.6,217.8 148.3,216.8 152.0,217.7 155.7,217.1 159.3,217.7 163.0,216.7 166.7,217.4 170.4,216.7 174.0,217.0 177.7,218.0 181.4,217.7 185.1,218.1 188.8,217.3 192.4,218.1 196.1,217.2 199.8,217.4 203.5,218.4 207.2,217.6 210.8,216.7 214.5,217.7 218.2,217.8 221.9,218.0 225.6,217.8 229.2,218.1 232.9,217.2 236.6,217.6 240.3,216.6 243.9,309.2 247.6,309.9 251.3,309.0 255.0,309.6 258.7,308.9 262.3,309.4 266.0,308.9 269.7,309.3 273.4,309.5 277.1,309.4 280.7,309.8 284.4,309.6 288.1,309.3 291.8,309.0 295.5,309.1 299.1,309.3 302.8,308.8 306.5,309.6 310.2,308.7 313.8,309.9 317.5,309.6 321.2,310.4 324.9,308.6 328.6,309.5 332.2,309.8 335.9,309.4 339.6,309.3 343.3,309.8 347.0,309.8 350.6,309.0 354.3,310.1 358.0,309.6 361.7,308.7 365.4,309.5 369.0,309.8 372.7,309.1 376.4,309.6 380.1,309.0 383.7,310.0 387.4,309.3 391.1,309.7 394.8,309.2 398.5,309.1 402.1,310.4 405.8,309.7 409.5,309.4 413.2,309.9 416.9,309.8 420.5,309.7 424.2,308.8 427.9,50.8 431.6,51.6 435.3,50.9 438.9,51.0 442.6,50.6 446.3,51.4 450.0,51.9 453.6,51.2 457.3,51.5 461.0,51.5 464.7,51.6 468.4,50.8 472.0,51.1 475.7,51.3 479.4,50.5 483.1,51.3 486.8,50.8 490.4,50.3 494.1,51.4 497.8,51.8 501.5,50.9 505.2,51.7 508.8,52.1 512.5,51.9 516.2,51.0 519.9,51.2 523.5,50.5 527.2,51.3 530.9,51.6 534.6,51.2 538.3,51.0 541.9,51.4 545.6,51.0 549.3,51.6 553.0,51.0 556.7,50.5 560.3,50.7 564.0,51.8 567.7,51.3 571.4,51.9 575.1,51.8 578.7,50.7 582.4,50.8 586.1,50.8 589.8,50.0 593.4,51.0 597.1,50.9 600.8,50.6 604.5,51.7 608.2,51.6 611.8,368.8 615.5,368.8 619.2,368.7 622.9,369.0 626.6,369.1 630.2,368.7 633.9,368.9 637.6,368.6 641.3,368.7 644.9,368.6 648.6,368.8 652.3,368.9 656.0,368.5 659.7,368.9 663.3,368.6 667.0,367.8 670.7,369.0 674.4,367.6 678.1,368.8 681.7,368.8 685.4,368.0 689.1,368.7 692.8,368.2 696.5,368.7 700.1,368.5 703.8,368.9 707.5,368.9 711.2,367.9 714.8,368.6 718.5,370.0 722.2,368.9 725.9,368.1 729.6,368.5 733.2,369.1 736.9,368.8 740.6,368.4 744.3,368.1 748.0,368.4 751.6,369.3 755.3,368.2 759.0,368.1 762.7,369.0 766.4,368.8 770.0,369.7 773.7,368.2 777.4,369.2 781.1,369.2 784.7,368.7 788.4,368.1 792.1,368.7 795.8,321.6 799.5,321.3 803.1,321.9 806.8,322.1 810.5,322.4 814.2,323.3 817.9,322.3 821.5,321.7 825.2,322.1 828.9,322.6 832.6,321.8 836.3,322.0 839.9,322.9 843.6,321.9 847.3,322.0 851.0,322.5 854.6,322.7 858.3,321.7 862.0,321.5 865.7,321.9 869.4,322.0 873.0,321.9 876.7,322.1 880.4,322.5 884.1,321.5 887.8,322.1 891.4,322.8 895.1,322.5 898.8,322.4 902.5,322.6 906.2,322.5 909.8,322.3 913.5,322.3 917.2,322.5 920.9,321.7 924.5,323.2 928.2,322.1 931.9,322.6 935.6,322.5 939.3,322.0 942.9,322.6 946.6,322.4 950.3,322.5 954.0,322.3 957.7,322.3 961.3,321.9 965.0,322.8 968.7,323.0 972.4,321.9 976.1,321.5 979.7,345.2 983.4,344.5 987.1,344.5 990.8,344.5 994.4,344.6 998.1,344.3 1001.8,344.2 1005.5,344.9 1009.2,344.5 1012.8,344.4 1016.5,344.2 1020.2,345.2 1023.9,344.4 1027.6,344.4 1031.2,344.4 1034.9,344.7 1038.6,344.6 1042.3,344.5 1046.0,344.3 1049.6,344.8 1053.3,344.9 1057.0,344.8 1060.7,344.3 1064.3,344.8 1068.0,344.9 1071.7,344.1 1075.4,344.1 1079.1,344.4 1082.7,344.6 1086.4,344.2 1090.1,344.7 1093.8,345.1 1097.5,345.1 1101.1,344.5 1104.8,344.5 1108.5,344.8 1112.2,344.7 1115.9,344.8 1119.5,344.7 1123.2,344.5 1126.9,344.8 1130.6,344.3 1134.2,344.3 1137.9,344.4 1141.6,344.8 1145.3,344.2 1149.0,344.6 1152.6,345.0 1156.3,344.5 1160.0,344.4" fill="none" stroke="#c55a11" stroke-width="2"/>
<text x="390" y="406" font-size="14" fill="#c55a11" font-family="sans-serif">R3</text>
</svg>