<svg xmlns="http://www.w3.org/2000/svg" width="1200" height="420" viewBox="0 0 1200 420">
<rect width="100%" height="100%" fill="white"/>
<text x="24" y="32" font-size="22" font-family="sans-serif">growth_speed</text>
<polyline points="60.0,370.0 63.7,368.9 67.4,366.9 71.0,366.4 74.7,367.3 78.4,369.8 82.1,362.3 85.8,366.6 89.4,369.0 93.1,368.9 96.8,369.3 100.5,365.1 104.1,368.6 107.8,367.6 111.5,369.5 115.2,370.0 118.9,365.7 122.5,366.9 126.2,366.2 129.9,369.1 133.6,370.0 137.3,362.9 140.9,362.3 144.6,369.8 148.3,366.8 152.0,369.2 155.7,369.9 159.3,365.9 163.0,367.4 166.7,368.7 170.4,367.3 174.0,363.7 177.7,369.2 181.4,368.8 185.1,368.6 188.8,366.6 192.4,363.7 196.1,363.7 199.8,367.8 203.5,369.5 207.2,368.7 210.8,367.7 214.5,362.5 218.2,367.1 221.9,364.5 225.6,369.4 229.2,370.0 232.9,368.7 236.6,234.4 240.3,236.4 243.9,235.3 247.6,234.6 251.3,234.0 255.0,369.2 258.7,370.0 262.3,370.0 266.0,370.0 269.7,366.4 273.4,366.2 277.1,369.4 280.7,368.4 284.4,365.7 288.1,369.4 291.8,366.7 295.5,366.3 299.1,366.2 302.8,365.9 306.5,369.1 310.2,365.1 313.8,367.8 317.5,364.7 321.2,367.9 324.9,368.1 328.6,361.9 332.2,367.0 335.9,367.9 339.6,365.5 343.3,368.9 347.0,368.7 350.6,368.7 354.3,367.1 358.0,369.8 361.7,365.3 365.4,366.6 369.0,367.7 372.7,367.6 376.4,369.6 380.1,369.8 383.7,365.5 387.4,368.7 391.1,364.5 394.8,365.8 398.5,369.7 402.1,369.5 405.8,368.6 409.5,364.9 413.2,366.7 416.9,369.3 420.5,52.8 424.2,51.4 427.9,54.8 431.6,55.8 435.3,52.5 438.9,364.5 442.6,370.0 446.3,368.6 450.0,363.3 453.6,367.7 457.3,365.3 461.0,365.3 464.7,367.9 468.4,366.1 472.0,361.3 475.7,365.4 479.4,366.0 483.1,365.2 486.8,368.2 490.4,369.7 494.1,367.3 497.8,357.8 501.5,367.7 505.2,368.6 508.8,367.3 512.5,365.1 516.2,363.2 519.9,369.8 523.5,367.6 527.2,368.7 530.9,359.2 534.6,365.5 538.3,369.4 541.9,363.4 545.6,365.3 549.3,365.5 553.0,369.6 556.7,369.0 560.3,367.3 564.0,367.7 567.7,365.0 571.4,360.5 575.1,364.5 578.7,367.9 582.4,367.7 586.1,360.5 589.8,364.4 593.4,368.3 597.1,368.3 600.8,362.3 604.5,50.0 608.2,50.0 611.8,50.0 615.5,50.0 619.2,50.0 622.9,365.2 626.6,370.0 630.2,365.4 633.9,363.3 637.6,367.1 641.3,369.2 644.9,368.5 648.6,366.6 652.3,362.5 656.0,363.4 659.7,366.8 663.3,367.2 667.0,364.8 670.7,370.0 674.4,366.5 678.1,367.8 681.7,369.2 685.4,369.4 689.1,365.9 692.8,369.1 696.5,363.1 700.1,367.7 703.8,366.8 707.5,364.0 711.2,368.1 714.8,370.0 718.5,367.9 722.2,369.7 725.9,366.0 729.6,368.2 733.2,366.6 736.9,370.0 740.6,368.3 744.3,368.9 748.0,368.7 751.6,368.8 755.3,363.2 759.0,364.6 762.7,369.6 766.4,368.9 770.0,367.8 773.7,366.0 777.4,360.2 781.1,368.6 784.7,369.9 788.4,50.0 792.1,50.0 795.8,50.0 799.5,50.0 803.1,50.0 806.8,369.1 810.5,369.9 814.2,370.0 817.9,370.0 821.5,368.0 825.2,370.0 828.9,370.0 832.6,370.0 836.3,368.9 839.9,368.7 843.6,369.3 847.3,369.9 851.0,369.1 854.6,369.8 858.3,368.1 862.0,369.5 865.7,369.8 869.4,369.0 873.0,370.0 876.7,367.5 880.4,369.5 884.1,370.0 887.8,369.9 891.4,369.5 895.1,367.7 898.8,369.3 902.5,369.7 906.2,369.9 909.8,369.7 913.5,369.7 917.2,369.9 920.9,369.6 924.5,369.8 928.2,368.3 931.9,369.8 935.6,369.2 939.3,369.9 942.9,369.4 946.6,369.0 950.3,370.0 954.0,368.9 957.7,370.0 961.3,369.9 965.0,369.8 968.7,369.9 972.4,50.0 976.1,50.0 979.7,50.0 983.4,50.0 987.1,50.0 990.8,365.5 994.4,366.0 998.1,366.7 1001.8,361.1 1005.5,365.5 1009.2,368.9 1012.8,361.3 1016.5,368.9 1020.2,366.8 1023.9,366.7 1027.6,368.9 1031.2,359.1 1034.9,369.0 1038.6,365.2 1042.3,368.2 1046.0,366.1 1049.6,361.1 1053.3,368.7 1057.0,363.1 1060.7,370.0 1064.3,367.4 1068.0,369.5 1071.7,365.0 1075.4,369.6 1079.1,367.6 1082.7,366.5 1086.4,369.0 1090.1,365.1 1093.8,367.9 1097.5,365.6 1101.1,366.4 1104.8,370.0 1108.5,359.7 1112.2,367.9 1115.9,367.6 1119.5,363.2 1123.2,367.9 1126.9,366.6 1130.6,367.0 1134.2,369.0 1137.9,364.0 1141.6,366.6 1145.3,368.2 1149.0,365.7 1152.6,366.2 1156.3,365.4 1160.0,367.6" fill="none" stroke="#2f7d32" stroke-width="2"/>
<text x="70" y="406" font-size="14" fill="#2f7d32" font-family="sans-serif">R1</text>
<polyline points="60.0,370.0 63.7,368.5 67.4,367.3 71.0,369.8 74.7,368.8 78.4,366.8 82.1,368.8 85.8,369.3 89.4,368.8 93.1,368.2 96.8,370.0 100.5,367.7 104.1,369.0 107.8,368.3 111.5,369.2 115.2,369.5 118.9,367.6 122.5,368.7 126.2,369.6 129.9,369.9 133.6,370.0 137.3,369.8 140.9,369.3 144.6,368.3 148.3,370.0 152.0,369.9 155.7,370.0 159.3,369.9 163.0,367.6 166.7,369.1 170.4,368.8 174.0,369.9 177.7,369.4 181.4,369.3 185.1,368.0 188.8,367.9 192.4,369.3 196.1,369.8 199.8,369.1 203.5,370.0 207.2,369.5 210.8,369.5 214.5,369.0 218.2,369.4 221.9,368.3 225.6,369.9 229.2,369.3 232.9,368.7 236.6,50.0 240.3,50.0 243.9,50.0 247.6,50.0 251.3,50.0 255.0,369.4 258.7,369.1 262.3,368.6 266.0,369.9 269.7,368.6 273.4,368.7 277.1,367.6 280.7,369.8 284.4,366.9 288.1,369.9 291.8,369.0 295.5,365.7 299.1,370.0 302.8,368.8 306.5,370.0 310.2,368.0 313.8,365.8 317.5,369.5 321.2,369.3 324.9,367.2 328.6,365.5 332.2,368.2 335.9,369.5 339.6,366.8 343.3,367.7 347.0,367.2 350.6,368.5 354.3,368.4 358.0,365.2 361.7,370.0 365.4,369.8 369.0,369.8 372.7,368.4 376.4,368.7 380.1,369.9 383.7,368.8 387.4,367.5 391.1,369.4 394.8,369.9 398.5,369.8 402.1,367.3 405.8,369.1 409.5,369.8 413.2,369.4 416.9,366.4 420.5,50.0 424.2,50.0 427.9,50.0 431.6,50.0 435.3,50.0 438.9,369.0 442.6,368.7 446.3,366.6 450.0,367.5 453.6,370.0 457.3,368.4 461.0,369.8 464.7,367.6 468.4,368.4 472.0,369.2 475.7,368.8 479.4,368.6 483.1,367.5 486.8,369.9 490.4,368.9 494.1,369.7 497.8,369.9 501.5,369.4 505.2,366.5 508.8,369.4 512.5,369.4 516.2,367.1 519.9,365.9 523.5,364.6 527.2,370.0 530.9,369.1 534.6,369.8 538.3,369.3 541.9,369.5 545.6,369.1 549.3,368.4 553.0,369.5 556.7,369.0 560.3,370.0 564.0,368.6 567.7,369.3 571.4,369.4 575.1,369.8 578.7,369.4 582.4,368.4 586.1,369.8 589.8,368.7 593.4,368.5 597.1,368.8 600.8,366.4 604.5,227.4 608.2,232.0 611.8,230.7 615.5,229.0 619.2,228.6 622.9,367.7 626.6,366.4 630.2,368.3 633.9,367.2 637.6,367.0 641.3,368.0 644.9,369.4 648.6,369.2 652.3,369.7 656.0,369.0 659.7,368.1 663.3,367.5 667.0,369.4 670.7,365.8 674.4,369.5 678.1,368.0 681.7,367.9 685.4,366.6 689.1,369.5 692.8,368.3 696.5,367.7 700.1,367.8 703.8,367.5 707.5,368.9 711.2,367.8 714.8,368.1 718.5,367.7 722.2,368.5 725.9,369.7 729.6,367.2 733.2,369.9 736.9,364.7 740.6,367.5 744.3,369.0 748.0,366.7 751.6,368.8 755.3,366.3 759.0,368.5 762.7,368.4 766.4,366.9 770.0,368.7 773.7,367.1 777.4,368.9 781.1,369.4 784.7,370.0 788.4,56.8 792.1,60.5 795.8,55.3 799.5,58.7 803.1,55.9 806.8,368.8 810.5,368.0 814.2,369.1 817.9,368.3 821.5,368.6 825.2,369.4 828.9,367.3 832.6,369.2 836.3,370.0 839.9,366.0 843.6,367.5 847.3,368.1 851.0,369.9 854.6,367.9 858.3,368.4 862.0,365.3 865.7,368.6 869.4,368.3 873.0,368.6 876.7,368.4 880.4,369.6 884.1,369.7 887.8,369.6 891.4,369.9 895.1,369.8 898.8,368.5 902.5,369.1 906.2,369.6 909.8,369.6 913.5,367.5 917.2,370.0 920.9,370.0 924.5,365.9 928.2,366.5 931.9,366.3 935.6,369.8 939.3,369.5 942.9,363.9 946.6,366.7 950.3,369.3 954.0,369.2 957.7,368.2 961.3,368.2 965.0,369.9 968.7,369.1 972.4,50.0 976.1,50.0 979.7,50.0 983.4,50.0 987.1,50.0 990.8,369.8 994.4,368.5 998.1,369.1 1001.8,368.9 1005.5,368.8 1009.2,368.9 1012.8,369.6 1016.5,370.0 1020.2,369.6 1023.9,367.1 1027.6,368.3 1031.2,368.1 1034.9,369.7 1038.6,366.0 1042.3,368.7 1046.0,369.2 1049.6,368.1 1053.3,369.2 1057.0,367.5 1060.7,369.6 1064.3,369.1 1068.0,370.0 1071.7,369.2 1075.4,368.8 1079.1,367.3 1082.7,368.6 1086.4,369.7 1090.1,369.2 1093.8,368.6 1097.5,366.4 1101.1,369.2 1104.8,370.0 1108.5,369.8 1112.2,368.0 1115.9,368.4 1119.5,370.0 1123.2,368.2 1126.9,368.4 1130.6,369.8 1134.2,369.6 1137.9,369.9 1141.6,367.1 1145.3,366.7 1149.0,367.8 1152.6,368.6 1156.3,368.4 1160.0,367.2" fill="none" stroke="#1976d2" stroke-width="2"/>
<text x="230" y="406" font-size="14" fill="#1976d2" font-family="sans-serif">R2</text>
<polyline points="60.0,370.0 63.7,368.7 67.4,366.8 71.0,366.2 74.7,366.6 78.4,369.9 82.1,366.8 85.8,367.5 89.4,369.8 93.1,369.5 96.8,364.4 100.5,360.5 104.1,368.8 107.8,365.5 111.5,366.9 115.2,368.5 118.9,369.4 122.5,368.2 126.2,367.7 129.9,365.9 133.6,366.8 137.3,363.9 140.9,364.4 144.6,368.0 148.3,363.3 152.0,367.0 155.7,363.3 159.3,367.0 163.0,363.8 166.7,369.2 170.4,368.2 174.0,363.5 177.7,365.5 181.4,366.5 185.1,363.2 188.8,365.0 192.4,368.3 196.1,368.5 199.8,368.1 203.5,361.7 207.2,367.3 210.8,368.2 214.5,367.9 218.2,369.5 221.9,361.2 225.6,367.0 229.2,369.5 232.9,361.2 236.6,50.0 240.3,50.0 243.9,50.0 247.6,50.0 251.3,50.0 255.0,369.3 258.7,364.2 262.3,368.4 266.0,369.6 269.7,367.3 273.4,367.7 277.1,366.2 280.7,370.0 284.4,367.1 288.1,368.5 291.8,367.0 295.5,365.1 299.1,368.3 302.8,368.0 306.5,365.5 310.2,367.9 313.8,359.9 317.5,363.9 321.2,364.7 324.9,369.6 328.6,368.8 332.2,363.2 335.9,363.0 339.6,368.8 343.3,365.1 347.0,365.6 350.6,367.8 354.3,363.5 358.0,368.5 361.7,364.9 365.4,363.7 369.0,370.0 372.7,368.4 376.4,367.3 380.1,367.1 383.7,366.8 387.4,367.3 391.1,369.8 394.8,367.2 398.5,368.1 402.1,368.7 405.8,365.7 409.5,366.0 413.2,365.7 416.9,364.8 420.5,50.0 424.2,50.0 427.9,50.0 431.6,50.0 435.3,50.0 438.9,366.8 442.6,368.4 446.3,368.0 450.0,367.0 453.6,364.4 457.3,368.9 461.0,363.7 464.7,369.5 468.4,369.0 472.0,364.1 475.7,368.4 479.4,370.0 483.1,365.0 486.8,370.0 490.4,361.9 494.1,367.3 497.8,364.6 501.5,358.7 505.2,367.1 508.8,365.2 512.5,368.2 516.2,363.1 519.9,364.8 523.5,368.6 527.2,368.8 530.9,369.3 534.6,365.1 538.3,368.6 541.9,370.0 545.6,368.7 549.3,367.1 553.0,366.3 556.7,365.3 560.3,368.6 564.0,364.5 567.7,362.4 571.4,370.0 575.1,363.9 578.7,366.9 582.4,358.2 586.1,365.3 589.8,369.3 593.4,369.1 597.1,364.9 600.8,360.2 604.5,50.0 608.2,50.0 611.8,50.0 615.5,50.0 619.2,50.0 622.9,369.6 626.6,369.8 630.2,369.6 633.9,368.8 637.6,366.9 641.3,370.0 644.9,370.0 648.6,369.5 652.3,369.1 656.0,370.0 659.7,364.0 663.3,369.8 667.0,364.3 670.7,369.6 674.4,369.0 678.1,368.8 681.7,368.6 685.4,366.0 689.1,369.3 692.8,368.1 696.5,364.8 700.1,368.7 703.8,368.2 707.5,370.0 711.2,360.4 714.8,370.0 718.5,365.0 722.2,366.6 725.9,367.6 729.6,362.9 733.2,367.5 736.9,370.0 740.6,370.0 744.3,368.8 748.0,366.3 751.6,368.1 755.3,364.6 759.0,368.1 762.7,367.7 766.4,370.0 770.0,363.3 773.7,368.9 777.4,369.9 781.1,360.2 784.7,367.0 788.4,65.7 792.1,63.9 795.8,70.7 799.5,76.1 803.1,73.8 806.8,359.5 810.5,363.7 814.2,369.1 817.9,369.9 821.5,368.7 825.2,360.8 828.9,368.1 832.6,362.9 836.3,369.2 839.9,366.3 843.6,365.9 847.3,365.7 851.0,363.0 854.6,367.9 858.3,369.4 862.0,367.6 865.7,365.5 869.4,367.8 873.0,364.1 876.7,368.0 880.4,369.9 884.1,365.0 887.8,367.5 891.4,369.5 895.1,363.5 898.8,367.7 902.5,367.5 906.2,368.7 909.8,369.6 913.5,364.9 917.2,366.0 920.9,368.6 924.5,368.4 928.2,370.0 931.9,368.6 935.6,366.3 939.3,368.1 942.9,369.6 946.6,369.1 950.3,368.3 954.0,366.0 957.7,367.7 961.3,367.0 965.0,367.8 968.7,364.9 972.4,221.1 976.1,232.0 979.7,232.9 983.4,225.9 987.1,222.2 990.8,364.2 994.4,368.8 998.1,367.8 1001.8,370.0 1005.5,369.0 1009.2,369.6 1012.8,363.9 1016.5,367.6 1020.2,369.6 1023.9,369.8 1027.6,366.6 1031.2,366.1 1034.9,369.7 1038.6,370.0 1042.3,367.4 1046.0,369.2 1049.6,368.9 1053.3,368.7 1057.0,367.1 1060.7,369.8 1064.3,365.3 1068.0,366.2 1071.7,369.7 1075.4,369.0 1079.1,366.1 1082.7,366.8 1086.4,363.9 1090.1,365.8 1093.8,369.5 1097.5,368.6 1101.1,369.7 1104.8,367.4 1108.5,368.4 1112.2,369.4 1115.9,369.9 1119.5,370.0 1123.2,367.6 1126.9,367.4 1130.6,368.4 1134.2,368.8 1137.9,366.7 1141.6,368.3 1145.3,365.9 1149.0,369.2 1152.6,368.0 1156.3,367.8 1160.0,369.7" fill="none" stroke="#c55a11" stroke-width="2"/>
<text x="390" y="406" font-size="14" fill="#c55a11" font-family="sans-serif">R3</text>
</svg>