<svg xmlns="http://www.w3.org/2000/svg" width="1200" height="420" viewBox="0 0 1200 420">
<rect width="100%" height="100%" fill="white"/>
<text x="24" y="32" font-size="22" font-family="sans-serif">leaf_energy</text>
<polyline points="60.0,50.9 63.7,50.4 67.4,50.5 71.0,50.2 74.7,50.9 78.4,50.0 82.1,50.7 85.8,50.2 89.4,50.5 93.1,50.7 96.8,51.1 100.5,50.7 104.1,51.1 107.8,50.0 111.5,50.9 115.2,51.1 118.9,50.5 122.5,50.8 126.2,50.2 129.9,50.3 133.6,50.7 137.3,50.7 140.9,50.3 144.6,50.1 148.3,50.3 152.0,50.5 155.7,50.7 159.3,50.2 163.0,50.1 166.7,50.6 170.4,50.2 174.0,50.7 177.7,50.5 181.4,50.1 185.1,50.3 188.8,50.6 192.4,50.3 196.1,50.5 199.8,50.1 203.5,50.1 207.2,50.2 210.8,50.4 214.5,50.7 218.2,50.0 221.9,50.1 225.6,50.4 229.2,50.9 232.9,50.1 236.6,50.1 240.3,50.4 243.9,164.4 247.6,164.9 251.3,164.5 255.0,165.0 258.7,164.8 262.3,164.7 266.0,164.5 269.7,164.7 273.4,165.2 277.1,164.8 280.7,165.0 284.4,164.0 288.1,164.3 291.8,164.8 295.5,164.9 299.1,165.1 302.8,164.3 306.5,164.7 310.2,164.7 313.8,164.6 317.5,164.7 321.2,164.9 324.9,165.0 328.6,164.3 332.2,164.4 335.9,165.0 339.6,164.6 343.3,164.2 347.0,165.4 350.6,164.6 354.3,164.4 358.0,164.5 361.7,165.0 365.4,164.9 369.0,163.9 372.7,164.4 376.4,164.3 380.1,164.4 383.7,164.9 387.4,164.9 391.1,164.6 394.8,165.0 398.5,164.8 402.1,164.6 405.8,165.0 409.5,164.4 413.2,164.8 416.9,164.8 420.5,164.6 424.2,164.5 427.9,235.9 431.6,236.1 435.3,235.9 438.9,235.4 442.6,235.1 446.3,235.4 450.0,235.3 453.6,235.1 457.3,235.2 461.0,235.6 464.7,235.1 468.4,235.3 472.0,235.5 475.7,235.1 479.4,235.2 483.1,235.0 486.8,235.2 490.4,235.2 494.1,235.7 497.8,235.3 501.5,235.4 505.2,235.5 508.8,235.8 512.5,235.3 516.2,235.1 519.9,236.2 523.5,235.5 527.2,235.1 530.9,235.4 534.6,235.4 538.3,235.3 541.9,235.6 545.6,235.6 549.3,235.1 553.0,235.1 556.7,235.2 560.3,235.2 564.0,235.9 567.7,235.4 571.4,235.5 575.1,235.0 578.7,235.1 582.4,235.8 586.1,235.1 589.8,235.2 593.4,235.2 597.1,235.3 600.8,235.4 604.5,235.2 608.2,235.5 611.8,122.2 615.5,122.3 619.2,122.4 622.9,122.3 626.6,122.6 630.2,122.2 633.9,122.7 637.6,122.9 641.3,122.3 644.9,122.7 648.6,122.3 652.3,122.2 656.0,123.1 659.7,122.2 663.3,121.5 667.0,122.4 670.7,122.3 674.4,122.7 678.1,122.1 681.7,122.3 685.4,122.4 689.1,122.1 692.8,122.5 696.5,122.1 700.1,122.1 703.8,122.6 707.5,122.5 711.2,122.1 714.8,122.1 718.5,122.4 722.2,122.7 725.9,122.1 729.6,122.6 733.2,122.4 736.9,122.6 740.6,122.1 744.3,122.2 748.0,122.4 751.6,122.5 755.3,122.6 759.0,123.1 762.7,122.8 766.4,121.7 770.0,121.8 773.7,121.9 777.4,122.5 781.1,122.5 784.7,122.8 788.4,122.2 792.1,122.6 795.8,369.4 799.5,369.6 803.1,368.3 806.8,369.8 810.5,369.9 814.2,369.4 817.9,370.0 821.5,369.9 825.2,369.7 828.9,369.9 832.6,369.8 836.3,369.3 839.9,370.0 843.6,369.2 847.3,369.9 851.0,369.2 854.6,369.5 858.3,369.0 862.0,368.5 865.7,369.7 869.4,369.6 873.0,369.4 876.7,369.6 880.4,369.3 884.1,369.5 887.8,370.0 891.4,369.1 895.1,369.9 898.8,369.8 902.5,369.6 906.2,369.9 909.8,369.9 913.5,369.4 917.2,369.6 920.9,369.6 924.5,369.5 928.2,369.5 931.9,369.0 935.6,369.6 939.3,369.5 942.9,369.7 946.6,369.5 950.3,369.5 954.0,370.0 957.7,370.0 961.3,369.9 965.0,369.9 968.7,369.0 972.4,369.4 976.1,368.9 979.7,336.7 983.4,337.1 987.1,336.8 990.8,337.2 994.4,337.7 998.1,337.0 1001.8,337.7 1005.5,336.9 1009.2,336.7 1012.8,337.2 1016.5,337.5 1020.2,336.8 1023.9,336.8 1027.6,337.5 1031.2,337.2 1034.9,337.5 1038.6,337.6 1042.3,337.4 1046.0,337.0 1049.6,337.2 1053.3,336.9 1057.0,336.7 1060.7,336.3 1064.3,337.4 1068.0,337.7 1071.7,337.3 1075.4,336.9 1079.1,337.5 1082.7,337.8 1086.4,337.2 1090.1,337.9 1093.8,337.1 1097.5,336.8 1101.1,337.4 1104.8,337.5 1108.5,337.1 1112.2,337.2 1115.9,337.3 1119.5,337.2 1123.2,337.1 1126.9,337.1 1130.6,337.1 1134.2,338.0 1137.9,337.2 1141.6,337.1 1145.3,337.3 1149.0,338.2 1152.6,336.8 1156.3,337.3 1160.0,336.9" fill="none" stroke="#2f7d32" stroke-width="2"/>
<text x="70" y="406" font-size="14" fill="#2f7d32" font-family="sans-serif">R1</text>
<polyline points="60.0,192.7 63.7,192.5 67.4,192.7 71.0,192.5 74.7,192.5 78.4,192.5 82.1,192.5 85.8,192.7 89.4,192.5 93.1,192.7 96.8,192.8 100.5,192.7 104.1,192.5 107.8,192.6 111.5,192.9 115.2,192.6 118.9,193.1 122.5,192.8 126.2,192.7 129.9,192.5 133.6,192.5 137.3,192.7 140.9,192.6 144.6,192.8 148.3,192.5 152.0,192.7 155.7,192.6 159.3,192.6 163.0,192.6 166.7,192.6 170.4,192.7 174.0,192.5 177.7,192.6 181.4,192.6 185.1,192.7 188.8,192.8 192.4,192.5 196.1,192.5 199.8,192.5 203.5,192.6 207.2,192.6 210.8,192.5 214.5,192.8 218.2,192.6 221.9,192.7 225.6,192.5 229.2,192.5 232.9,192.7 236.6,192.5 240.3,192.5 243.9,50.2 247.6,50.3 251.3,50.1 255.0,50.3 258.7,50.4 262.3,50.4 266.0,50.4 269.7,50.4 273.4,50.2 277.1,50.4 280.7,50.3 284.4,50.4 288.1,50.2 291.8,50.2 295.5,50.4 299.1,50.2 302.8,50.3 306.5,50.4 310.2,50.0 313.8,50.4 317.5,50.2 321.2,50.2 324.9,50.4 328.6,50.4 332.2,50.4 335.9,50.1 339.6,50.2 343.3,50.5 347.0,50.2 350.6,50.3 354.3,50.3 358.0,50.2 361.7,50.1 365.4,50.2 369.0,50.1 372.7,50.2 376.4,50.3 380.1,50.2 383.7,50.4 387.4,50.4 391.1,50.4 394.8,50.1 398.5,50.2 402.1,50.4 405.8,50.2 409.5,50.3 413.2,50.2 416.9,50.4 420.5,50.6 424.2,50.4 427.9,191.8 431.6,191.7 435.3,191.8 438.9,191.9 442.6,191.7 446.3,191.6 450.0,191.7 453.6,191.9 457.3,192.0 461.0,191.8 464.7,191.8 468.4,191.8 472.0,191.7 475.7,191.8 479.4,191.5 483.1,191.7 486.8,191.8 490.4,191.8 494.1,191.9 497.8,191.6 501.5,191.8 505.2,191.8 508.8,191.8 512.5,191.5 516.2,191.4 519.9,192.0 523.5,191.7 527.2,191.8 530.9,191.8 534.6,191.7 538.3,191.8 541.9,191.6 545.6,191.8 549.3,191.7 553.0,191.6 556.7,191.8 560.3,191.8 564.0,191.8 567.7,191.9 571.4,191.9 575.1,191.9 578.7,191.9 582.4,191.9 586.1,191.7 589.8,191.9 593.4,191.6 597.1,191.7 600.8,191.7 604.5,191.8 608.2,191.8 611.8,316.0 615.5,316.0 619.2,316.1 622.9,316.2 626.6,316.0 630.2,316.1 633.9,316.1 637.6,316.1 641.3,315.9 644.9,316.0 648.6,316.1 652.3,315.8 656.0,315.9 659.7,315.9 663.3,316.0 667.0,315.7 670.7,316.0 674.4,316.1 678.1,315.9 681.7,316.0 685.4,315.9 689.1,316.0 692.8,315.9 696.5,316.1 700.1,315.9 703.8,316.1 707.5,315.9 711.2,316.0 714.8,316.1 718.5,316.1 722.2,316.1 725.9,316.2 729.6,315.9 733.2,316.1 736.9,316.0 740.6,315.8 744.3,315.9 748.0,316.1 751.6,316.1 755.3,316.1 759.0,315.9 762.7,315.9 766.4,315.9 770.0,315.8 773.7,315.9 777.4,316.1 781.1,316.1 784.7,315.9 788.4,316.1 792.1,316.0 795.8,121.6 799.5,121.7 803.1,121.8 806.8,121.6 810.5,121.8 814.2,121.7 817.9,121.7 821.5,121.8 825.2,121.7 828.9,121.5 832.6,121.6 836.3,121.5 839.9,121.6 843.6,121.5 847.3,121.7 851.0,121.6 854.6,121.5 858.3,121.4 862.0,121.4 865.7,121.6 869.4,121.8 873.0,121.8 876.7,121.5 880.4,121.6 884.1,121.6 887.8,121.7 891.4,121.7 895.1,121.6 898.8,121.6 902.5,121.8 906.2,121.3 909.8,121.6 913.5,121.6 917.2,121.6 920.9,121.8 924.5,121.6 928.2,121.5 931.9,121.7 935.6,121.6 939.3,121.6 942.9,121.5 946.6,121.7 950.3,121.7 954.0,121.8 957.7,121.7 961.3,121.7 965.0,121.5 968.7,121.6 972.4,121.7 976.1,121.6 979.7,369.9 983.4,369.8 987.1,370.0 990.8,369.9 994.4,369.7 998.1,369.9 1001.8,369.8 1005.5,370.0 1009.2,369.9 1012.8,369.9 1016.5,369.8 1020.2,369.9 1023.9,369.8 1027.6,369.8 1031.2,369.9 1034.9,370.0 1038.6,370.0 1042.3,369.8 1046.0,369.8 1049.6,370.0 1053.3,369.7 1057.0,369.9 1060.7,369.9 1064.3,369.9 1068.0,369.8 1071.7,369.7 1075.4,369.8 1079.1,370.0 1082.7,370.0 1086.4,370.0 1090.1,369.9 1093.8,369.8 1097.5,369.8 1101.1,369.7 1104.8,369.8 1108.5,370.0 1112.2,370.0 1115.9,370.0 1119.5,369.9 1123.2,369.7 1126.9,369.9 1130.6,369.9 1134.2,369.9 1137.9,370.0 1141.6,369.9 1145.3,370.0 1149.0,369.9 1152.6,369.8 1156.3,369.9 1160.0,369.9" fill="none" stroke="#1976d2" stroke-width="2"/>
<text x="230" y="406" font-size="14" fill="#1976d2" font-family="sans-serif">R2</text>
<polyline points="60.0,210.2 63.7,209.7 67.4,209.7 71.0,209.8 74.7,209.7 78.4,209.7 82.1,209.9 85.8,209.7 89.4,209.6 93.1,209.9 96.8,209.9 100.5,210.0 104.1,209.7 107.8,209.5 111.5,209.9 115.2,210.0 118.9,209.8 122.5,209.9 126.2,209.8 129.9,210.0 133.6,209.7 137.3,210.0 140.9,209.7 144.6,209.8 148.3,209.7 152.0,210.0 155.7,209.9 159.3,209.8 163.0,209.8 166.7,210.0 170.4,209.8 174.0,209.8 177.7,209.7 181.4,210.0 185.1,209.9 188.8,209.8 192.4,209.8 196.1,209.9 199.8,209.7 203.5,209.8 207.2,209.6 210.8,209.8 214.5,209.9 218.2,209.9 221.9,209.8 225.6,210.0 229.2,209.9 232.9,209.6 236.6,209.5 240.3,209.8 243.9,158.3 247.6,158.0 251.3,158.2 255.0,157.9 258.7,158.0 262.3,158.1 266.0,157.9 269.7,158.0 273.4,157.9 277.1,158.1 280.7,158.0 284.4,158.0 288.1,157.9 291.8,157.6 295.5,157.9 299.1,157.8 302.8,157.8 306.5,158.0 310.2,158.0 313.8,158.0 317.5,158.1 321.2,157.7 324.9,158.0 328.6,158.2 332.2,157.8 335.9,158.1 339.6,158.2 343.3,157.5 347.0,158.0 350.6,158.0 354.3,158.2 358.0,158.4 361.7,158.2 365.4,157.9 369.0,158.1 372.7,157.6 376.4,158.0 380.1,158.2 383.7,158.1 387.4,157.7 391.1,158.3 394.8,157.9 398.5,157.9 402.1,157.9 405.8,158.0 409.5,158.2 413.2,157.9 416.9,158.0 420.5,157.9 424.2,158.2 427.9,50.1 431.6,50.1 435.3,50.3 438.9,50.3 442.6,50.0 446.3,50.0 450.0,50.3 453.6,50.4 457.3,50.1 461.0,50.0 464.7,50.1 468.4,50.1 472.0,50.4 475.7,50.1 479.4,50.4 483.1,50.0 486.8,50.1 490.4,50.2 494.1,50.1 497.8,50.1 501.5,50.1 505.2,50.0 508.8,50.3 512.5,50.1 516.2,50.1 519.9,50.0 523.5,50.1 527.2,50.3 530.9,50.0 534.6,50.4 538.3,50.1 541.9,50.1 545.6,50.4 549.3,50.1 553.0,50.2 556.7,50.4 560.3,50.2 564.0,50.1 567.7,50.1 571.4,50.2 575.1,50.0 578.7,50.2 582.4,50.1 586.1,50.3 589.8,50.2 593.4,50.4 597.1,50.2 600.8,50.4 604.5,50.5 608.2,50.3 611.8,369.8 615.5,369.8 619.2,369.9 622.9,369.8 626.6,369.6 630.2,369.8 633.9,369.5 637.6,369.5 641.3,370.0 644.9,369.9 648.6,370.0 652.3,369.8 656.0,369.7 659.7,369.6 663.3,369.7 667.0,369.8 670.7,369.7 674.4,370.0 678.1,369.9 681.7,369.6 685.4,369.8 689.1,370.0 692.8,369.8 696.5,369.7 700.1,370.0 703.8,369.9 707.5,369.5 711.2,370.0 714.8,369.7 718.5,369.7 722.2,369.6 725.9,369.9 729.6,369.8 733.2,369.6 736.9,369.6 740.6,370.0 744.3,369.6 748.0,370.0 751.6,369.8 755.3,369.7 759.0,369.8 762.7,369.9 766.4,369.9 770.0,369.7 773.7,369.7 777.4,370.0 781.1,369.7 784.7,369.8 788.4,369.9 792.1,369.7 795.8,156.1 799.5,156.0 803.1,156.2 806.8,156.2 810.5,155.9 814.2,156.3 817.9,156.1 821.5,156.1 825.2,156.0 828.9,156.2 832.6,156.0 836.3,156.3 839.9,156.2 843.6,156.2 847.3,156.1 851.0,156.0 854.6,156.1 858.3,156.1 862.0,156.3 865.7,156.1 869.4,156.1 873.0,156.3 876.7,156.0 880.4,156.2 884.1,156.1 887.8,156.2 891.4,156.1 895.1,156.3 898.8,156.2 902.5,156.1 906.2,155.9 909.8,156.1 913.5,156.0 917.2,155.9 920.9,155.8 924.5,155.9 928.2,156.0 931.9,156.2 935.6,156.1 939.3,156.2 942.9,156.1 946.6,156.3 950.3,156.2 954.0,155.9 957.7,156.2 961.3,156.3 965.0,156.3 968.7,156.1 972.4,156.2 976.1,156.1 979.7,119.2 983.4,119.4 987.1,119.0 990.8,119.0 994.4,119.0 998.1,119.1 1001.8,119.3 1005.5,119.1 1009.2,119.0 1012.8,119.3 1016.5,119.0 1020.2,119.3 1023.9,119.0 1027.6,119.5 1031.2,119.1 1034.9,119.2 1038.6,119.2 1042.3,119.3 1046.0,119.3 1049.6,119.2 1053.3,119.0 1057.0,119.1 1060.7,119.3 1064.3,119.4 1068.0,119.3 1071.7,118.7 1075.4,119.2 1079.1,119.2 1082.7,119.3 1086.4,119.2 1090.1,119.5 1093.8,119.3 1097.5,119.3 1101.1,119.1 1104.8,119.3 1108.5,119.0 1112.2,119.1 1115.9,119.3 1119.5,119.3 1123.2,119.2 1126.9,119.0 1130.6,119.3 1134.2,118.9 1137.9,119.1 1141.6,119.4 1145.3,119.0 1149.0,119.2 1152.6,119.5 1156.3,119.1 1160.0,119.1" fill="none" stroke="#c55a11" stroke-width="2"/>
<text x="390" y="406" font-size="14" fill="#c55a11" font-family="sans-serif">R3</text>
</svg>