<svg xmlns="http://www.w3.org/2000/svg" width="1200" height="420" viewBox="0 0 1200 420">
<rect width="100%" height="100%" fill="white"/>
<text x="24" y="32" font-size="22" font-family="sans-serif">root_energy</text>
<polyline points="60.0,50.3 63.7,50.1 67.4,50.2 71.0,50.2 74.7,50.3 78.4,50.2 82.1,50.2 85.8,50.0 89.4,50.2 93.1,50.2 96.8,50.2 100.5,50.1 104.1,50.1 107.8,50.1 111.5,50.1 115.2,50.1 118.9,50.1 122.5,50.2 126.2,50.1 129.9,50.2 133.6,50.2 137.3,50.1 140.9,50.2 144.6,50.1 148.3,50.1 152.0,50.1 155.7,50.3 159.3,50.1 163.0,50.0 166.7,50.2 170.4,50.2 174.0,50.1 177.7,50.0 181.4,50.2 185.1,50.2 188.8,50.2 192.4,50.1 196.1,50.2 199.8,50.2 203.5,50.2 207.2,50.2 210.8,50.2 214.5,50.1 218.2,50.2 221.9,50.3 225.6,50.2 229.2,50.2 232.9,50.0 236.6,50.1 240.3,50.2 243.9,224.8 247.6,224.8 251.3,224.9 255.0,224.8 258.7,224.8 262.3,224.7 266.0,224.7 269.7,224.8 273.4,224.7 277.1,224.8 280.7,224.8 284.4,224.8 288.1,224.9 291.8,224.9 295.5,224.9 299.1,224.8 302.8,224.9 306.5,224.8 310.2,224.8 313.8,224.8 317.5,224.9 321.2,224.8 324.9,224.9 328.6,224.7 332.2,224.7 335.9,224.8 339.6,224.8 343.3,224.8 347.0,224.8 350.6,224.8 354.3,224.8 358.0,224.8 361.7,224.8 365.4,224.7 369.0,224.8 372.7,224.8 376.4,224.8 380.1,224.7 383.7,224.8 387.4,224.9 391.1,224.8 394.8,224.7 398.5,224.8 402.1,224.8 405.8,224.8 409.5,224.8 413.2,224.7 416.9,224.7 420.5,224.8 424.2,224.7 427.9,180.3 431.6,180.4 435.3,180.4 438.9,180.4 442.6,180.4 446.3,180.4 450.0,180.3 453.6,180.3 457.3,180.4 461.0,180.4 464.7,180.3 468.4,180.3 472.0,180.4 475.7,180.5 479.4,180.4 483.1,180.3 486.8,180.4 490.4,180.3 494.1,180.4 497.8,180.4 501.5,180.4 505.2,180.3 508.8,180.4 512.5,180.4 516.2,180.4 519.9,180.3 523.5,180.4 527.2,180.4 530.9,180.5 534.6,180.5 538.3,180.5 541.9,180.4 545.6,180.4 549.3,180.3 553.0,180.4 556.7,180.3 560.3,180.3 564.0,180.4 567.7,180.3 571.4,180.3 575.1,180.4 578.7,180.4 582.4,180.4 586.1,180.3 589.8,180.5 593.4,180.3 597.1,180.4 600.8,180.4 604.5,180.4 608.2,180.4 611.8,328.2 615.5,328.2 619.2,328.1 622.9,328.2 626.6,328.3 630.2,328.3 633.9,328.2 637.6,328.3 641.3,328.2 644.9,328.1 648.6,328.2 652.3,328.2 656.0,328.3 659.7,328.2 663.3,328.2 667.0,328.3 670.7,328.2 674.4,328.3 678.1,328.2 681.7,328.3 685.4,328.1 689.1,328.1 692.8,328.2 696.5,328.2 700.1,328.1 703.8,328.1 707.5,328.2 711.2,328.2 714.8,328.2 718.5,328.2 722.2,328.2 725.9,328.2 729.6,328.1 733.2,328.1 736.9,328.2 740.6,328.2 744.3,328.2 748.0,328.3 751.6,328.2 755.3,328.2 759.0,328.3 762.7,328.1 766.4,328.3 770.0,328.1 773.7,328.3 777.4,328.2 781.1,328.2 784.7,328.2 788.4,328.2 792.1,328.2 795.8,369.8 799.5,369.7 803.1,369.9 806.8,369.9 810.5,369.8 814.2,369.8 817.9,369.8 821.5,369.7 825.2,369.8 828.9,369.8 832.6,369.8 836.3,369.8 839.9,369.9 843.6,369.8 847.3,369.8 851.0,369.9 854.6,369.9 858.3,369.9 862.0,369.9 865.7,369.8 869.4,369.8 873.0,369.9 876.7,369.8 880.4,369.8 884.1,369.8 887.8,369.8 891.4,369.7 895.1,369.8 898.8,369.9 902.5,369.7 906.2,369.8 909.8,369.7 913.5,369.8 917.2,369.9 920.9,369.9 924.5,369.8 928.2,369.8 931.9,369.8 935.6,369.8 939.3,369.8 942.9,369.9 946.6,369.8 950.3,370.0 954.0,369.8 957.7,369.8 961.3,369.8 965.0,370.0 968.7,369.8 972.4,369.7 976.1,369.8 979.7,194.1 983.4,194.0 987.1,194.3 990.8,194.2 994.4,194.0 998.1,194.2 1001.8,194.0 1005.5,194.3 1009.2,194.2 1012.8,194.1 1016.5,194.1 1020.2,194.2 1023.9,194.1 1027.6,194.1 1031.2,194.1 1034.9,194.1 1038.6,194.1 1042.3,194.1 1046.0,194.1 1049.6,194.1 1053.3,194.1 1057.0,194.2 1060.7,194.2 1064.3,193.9 1068.0,194.2 1071.7,194.2 1075.4,194.2 1079.1,194.1 1082.7,194.1 1086.4,194.1 1090.1,194.0 1093.8,194.2 1097.5,194.1 1101.1,194.0 1104.8,194.0 1108.5,194.2 1112.2,194.0 1115.9,194.2 1119.5,194.1 1123.2,194.1 1126.9,194.0 1130.6,194.1 1134.2,194.2 1137.9,194.2 1141.6,194.1 1145.3,194.1 1149.0,194.2 1152.6,194.1 1156.3,194.1 1160.0,194.1" fill="none" stroke="#2f7d32" stroke-width="2"/>
<text x="70" y="406" font-size="14" fill="#2f7d32" font-family="sans-serif">R1</text>
<polyline points="60.0,95.1 63.7,95.0 67.4,95.0 71.0,94.9 74.7,95.0 78.4,94.8 82.1,95.1 85.8,95.0 89.4,95.0 93.1,94.9 96.8,95.0 100.5,95.1 104.1,95.1 107.8,95.0 111.5,95.0 115.2,94.9 118.9,94.9 122.5,95.0 126.2,95.0 129.9,95.0 133.6,95.0 137.3,95.0 140.9,94.9 144.6,95.0 148.3,95.0 152.0,95.0 155.7,95.0 159.3,95.0 163.0,94.9 166.7,95.1 170.4,94.9 174.0,95.0 177.7,95.0 181.4,95.0 185.1,95.1 188.8,95.0 192.4,95.0 196.1,95.0 199.8,94.9 203.5,95.0 207.2,95.0 210.8,95.1 214.5,95.1 218.2,95.1 221.9,94.9 225.6,95.1 229.2,95.0 232.9,95.0 236.6,95.0 240.3,95.1 243.9,50.0 247.6,50.0 251.3,50.0 255.0,50.1 258.7,50.2 262.3,50.1 266.0,50.1 269.7,50.1 273.4,50.1 277.1,50.1 280.7,50.1 284.4,50.2 288.1,50.1 291.8,50.2 295.5,50.1 299.1,50.1 302.8,50.2 306.5,50.1 310.2,50.2 313.8,50.1 317.5,50.2 321.2,50.1 324.9,50.0 328.6,50.1 332.2,50.1 335.9,50.2 339.6,50.1 343.3,50.1 347.0,50.2 350.6,50.1 354.3,50.1 358.0,50.2 361.7,50.1 365.4,50.1 369.0,50.2 372.7,50.2 376.4,50.2 380.1,50.1 383.7,50.2 387.4,50.2 391.1,50.2 394.8,50.3 398.5,50.1 402.1,50.1 405.8,50.1 409.5,50.0 413.2,50.0 416.9,50.0 420.5,50.2 424.2,50.2 427.9,142.4 431.6,142.4 435.3,142.5 438.9,142.5 442.6,142.5 446.3,142.5 450.0,142.5 453.6,142.6 457.3,142.4 461.0,142.5 464.7,142.5 468.4,142.5 472.0,142.4 475.7,142.6 479.4,142.5 483.1,142.4 486.8,142.5 490.4,142.4 494.1,142.5 497.8,142.5 501.5,142.5 505.2,142.5 508.8,142.5 512.5,142.5 516.2,142.4 519.9,142.6 523.5,142.5 527.2,142.5 530.9,142.3 534.6,142.4 538.3,142.4 541.9,142.5 545.6,142.4 549.3,142.5 553.0,142.5 556.7,142.6 560.3,142.5 564.0,142.4 567.7,142.5 571.4,142.5 575.1,142.4 578.7,142.4 582.4,142.6 586.1,142.5 589.8,142.5 593.4,142.4 597.1,142.5 600.8,142.5 604.5,142.4 608.2,142.5 611.8,324.5 615.5,324.5 619.2,324.4 622.9,324.6 626.6,324.4 630.2,324.5 633.9,324.4 637.6,324.5 641.3,324.5 644.9,324.5 648.6,324.5 652.3,324.4 656.0,324.5 659.7,324.4 663.3,324.4 667.0,324.6 670.7,324.4 674.4,324.5 678.1,324.4 681.7,324.4 685.4,324.5 689.1,324.5 692.8,324.5 696.5,324.4 700.1,324.3 703.8,324.5 707.5,324.5 711.2,324.5 714.8,324.5 718.5,324.4 722.2,324.5 725.9,324.5 729.6,324.4 733.2,324.5 736.9,324.4 740.6,324.6 744.3,324.7 748.0,324.3 751.6,324.5 755.3,324.5 759.0,324.5 762.7,324.4 766.4,324.5 770.0,324.5 773.7,324.3 777.4,324.4 781.1,324.5 784.7,324.4 788.4,324.4 792.1,324.3 795.8,369.9 799.5,369.9 803.1,369.8 806.8,369.9 810.5,369.9 814.2,369.9 817.9,369.9 821.5,369.9 825.2,369.9 828.9,370.0 832.6,369.9 836.3,369.9 839.9,370.0 843.6,369.9 847.3,369.9 851.0,369.9 854.6,370.0 858.3,369.9 862.0,369.9 865.7,369.9 869.4,370.0 873.0,369.9 876.7,369.9 880.4,369.9 884.1,369.9 887.8,369.9 891.4,369.9 895.1,370.0 898.8,370.0 902.5,369.9 906.2,370.0 909.8,369.9 913.5,369.9 917.2,369.9 920.9,369.9 924.5,370.0 928.2,369.9 931.9,369.9 935.6,369.9 939.3,369.9 942.9,370.0 946.6,369.9 950.3,369.9 954.0,369.9 957.7,369.9 961.3,370.0 965.0,369.9 968.7,369.9 972.4,369.9 976.1,369.9 979.7,209.9 983.4,209.9 987.1,210.1 990.8,209.9 994.4,210.0 998.1,209.9 1001.8,210.1 1005.5,209.9 1009.2,210.0 1012.8,210.0 1016.5,209.9 1020.2,210.0 1023.9,210.0 1027.6,210.0 1031.2,209.9 1034.9,210.0 1038.6,210.0 1042.3,209.9 1046.0,210.0 1049.6,209.9 1053.3,210.0 1057.0,210.0 1060.7,210.0 1064.3,209.9 1068.0,210.0 1071.7,210.0 1075.4,209.9 1079.1,209.9 1082.7,210.0 1086.4,210.0 1090.1,210.0 1093.8,210.0 1097.5,210.0 1101.1,210.0 1104.8,209.9 1108.5,210.0 1112.2,210.0 1115.9,209.9 1119.5,210.0 1123.2,209.9 1126.9,209.9 1130.6,210.1 1134.2,210.0 1137.9,210.0 1141.6,210.0 1145.3,209.9 1149.0,209.8 1152.6,210.0 1156.3,210.0 1160.0,210.0" fill="none" stroke="#1976d2" stroke-width="2"/>
<text x="230" y="406" font-size="14" fill="#1976d2" font-family="sans-serif">R2</text>
<polyline points="60.0,248.6 63.7,248.7 67.4,248.7 71.0,248.6 74.7,248.6 78.4,248.6 82.1,248.7 85.8,248.6 89.4,248.6 93.1,248.6 96.8,248.6 100.5,248.6 104.1,248.6 107.8,248.7 111.5,248.6 115.2,248.7 118.9,248.6 122.5,248.6 126.2,248.6 129.9,248.6 133.6,248.6 137.3,248.7 140.9,248.6 144.6,248.6 148.3,248.6 152.0,248.6 155.7,248.6 159.3,248.6 163.0,248.6 166.7,248.6 170.4,248.7 174.0,248.6 177.7,248.6 181.4,248.6 185.1,248.6 188.8,248.6 192.4,248.6 196.1,248.6 199.8,248.6 203.5,248.5 207.2,248.5 210.8,248.6 214.5,248.6 218.2,248.7 221.9,248.6 225.6,248.6 229.2,248.6 232.9,248.6 236.6,248.6 240.3,248.6 243.9,198.3 247.6,198.4 251.3,198.4 255.0,198.2 258.7,198.3 262.3,198.2 266.0,198.3 269.7,198.3 273.4,198.3 277.1,198.2 280.7,198.3 284.4,198.3 288.1,198.3 291.8,198.3 295.5,198.2 299.1,198.4 302.8,198.2 306.5,198.2 310.2,198.3 313.8,198.2 317.5,198.3 321.2,198.3 324.9,198.3 328.6,198.3 332.2,198.3 335.9,198.3 339.6,198.3 343.3,198.3 347.0,198.3 350.6,198.3 354.3,198.4 358.0,198.2 361.7,198.3 365.4,198.3 369.0,198.3 372.7,198.3 376.4,198.3 380.1,198.3 383.7,198.3 387.4,198.3 391.1,198.3 394.8,198.3 398.5,198.4 402.1,198.3 405.8,198.2 409.5,198.3 413.2,198.3 416.9,198.3 420.5,198.3 424.2,198.3 427.9,50.0 431.6,50.0 435.3,50.0 438.9,50.0 442.6,50.0 446.3,50.0 450.0,50.0 453.6,50.0 457.3,50.0 461.0,50.0 464.7,50.0 468.4,50.0 472.0,50.0 475.7,50.0 479.4,50.0 483.1,50.0 486.8,50.0 490.4,50.0 494.1,50.0 497.8,50.0 501.5,50.0 505.2,50.0 508.8,50.0 512.5,50.0 516.2,50.0 519.9,50.0 523.5,50.0 527.2,50.0 530.9,50.0 534.6,50.0 538.3,50.0 541.9,50.0 545.6,50.0 549.3,50.0 553.0,50.0 556.7,50.0 560.3,50.0 564.0,50.0 567.7,50.0 571.4,50.0 575.1,50.0 578.7,50.0 582.4,50.0 586.1,50.0 589.8,50.0 593.4,50.0 597.1,50.0 600.8,50.0 604.5,50.0 608.2,50.0 611.8,335.7 615.5,335.7 619.2,335.7 622.9,335.7 626.6,335.7 630.2,335.6 633.9,335.7 637.6,335.7 641.3,335.7 644.9,335.7 648.6,335.7 652.3,335.6 656.0,335.7 659.7,335.6 663.3,335.7 667.0,335.6 670.7,335.6 674.4,335.7 678.1,335.7 681.7,335.6 685.4,335.7 689.1,335.7 692.8,335.7 696.5,335.7 700.1,335.7 703.8,335.6 707.5,335.7 711.2,335.7 714.8,335.7 718.5,335.7 722.2,335.7 725.9,335.6 729.6,335.7 733.2,335.7 736.9,335.6 740.6,335.7 744.3,335.6 748.0,335.7 751.6,335.6 755.3,335.7 759.0,335.7 762.7,335.7 766.4,335.7 770.0,335.7 773.7,335.7 777.4,335.7 781.1,335.7 784.7,335.7 788.4,335.6 792.1,335.6 795.8,369.9 799.5,369.9 803.1,369.9 806.8,369.9 810.5,369.9 814.2,369.9 817.9,369.9 821.5,369.9 825.2,369.9 828.9,369.9 832.6,369.9 836.3,369.9 839.9,369.9 843.6,369.9 847.3,369.9 851.0,369.9 854.6,369.9 858.3,369.9 862.0,369.9 865.7,369.9 869.4,369.9 873.0,369.9 876.7,370.0 880.4,369.9 884.1,370.0 887.8,369.9 891.4,369.9 895.1,369.9 898.8,369.9 902.5,369.9 906.2,369.9 909.8,369.9 913.5,369.9 917.2,369.9 920.9,369.9 924.5,369.9 928.2,369.9 931.9,369.9 935.6,370.0 939.3,369.9 942.9,369.9 946.6,370.0 950.3,369.9 954.0,369.9 957.7,369.9 961.3,369.8 965.0,369.9 968.7,369.9 972.4,369.9 976.1,369.9 979.7,194.7 983.4,194.8 987.1,194.7 990.8,194.7 994.4,194.7 998.1,194.8 1001.8,194.8 1005.5,194.7 1009.2,194.7 1012.8,194.7 1016.5,194.7 1020.2,194.7 1023.9,194.7 1027.6,194.7 1031.2,194.7 1034.9,194.8 1038.6,194.6 1042.3,194.7 1046.0,194.8 1049.6,194.7 1053.3,194.8 1057.0,194.7 1060.7,194.6 1064.3,194.6 1068.0,194.7 1071.7,194.7 1075.4,194.7 1079.1,194.7 1082.7,194.7 1086.4,194.7 1090.1,194.7 1093.8,194.8 1097.5,194.7 1101.1,194.7 1104.8,194.7 1108.5,194.7 1112.2,194.7 1115.9,194.7 1119.5,194.8 1123.2,194.7 1126.9,194.7 1130.6,194.8 1134.2,194.7 1137.9,194.8 1141.6,194.8 1145.3,194.7 1149.0,194.8 1152.6,194.7 1156.3,194.6 1160.0,194.8" fill="none" stroke="#c55a11" stroke-width="2"/>
<text x="390" y="406" font-size="14" fill="#c55a11" font-family="sans-serif">R3</text>
</svg>