<svg xmlns="http://www.w3.org/2000/svg" width="1200" height="420" viewBox="0 0 1200 420">
<rect width="100%" height="100%" fill="white"/>
<text x="24" y="32" font-size="22" font-family="sans-serif">vitality</text>
<polyline points="60.0,250.2 63.7,250.2 67.4,250.2 71.0,250.2 74.7,250.2 78.4,250.2 82.1,250.2 85.8,250.2 89.4,250.2 93.1,250.2 96.8,250.2 100.5,250.2 104.1,250.2 107.8,250.2 111.5,250.2 115.2,250.2 118.9,250.2 122.5,250.2 126.2,250.2 129.9,250.2 133.6,250.2 137.3,250.2 140.9,250.2 144.6,250.2 148.3,250.2 152.0,250.2 155.7,250.2 159.3,250.2 163.0,250.2 166.7,250.2 170.4,250.2 174.0,250.2 177.7,250.2 181.4,250.2 185.1,250.2 188.8,250.2 192.4,250.2 196.1,250.2 199.8,250.2 203.5,250.2 207.2,250.2 210.8,250.2 214.5,250.2 218.2,250.2 221.9,250.2 225.6,250.2 229.2,250.2 232.9,250.2 236.6,250.2 240.3,193.7 243.9,137.2 247.6,80.7 251.3,80.7 255.0,80.6 258.7,80.6 262.3,80.6 266.0,80.7 269.7,80.7 273.4,80.7 277.1,80.7 280.7,80.7 284.4,80.6 288.1,80.6 291.8,80.6 295.5,80.6 299.1,80.6 302.8,80.6 306.5,80.7 310.2,80.6 313.8,80.6 317.5,80.6 321.2,80.7 324.9,80.7 328.6,80.7 332.2,80.6 335.9,80.6 339.6,80.6 343.3,80.6 347.0,80.6 350.6,80.6 354.3,80.6 358.0,80.6 361.7,80.6 365.4,80.6 369.0,80.6 372.7,80.6 376.4,80.6 380.1,80.6 383.7,80.6 387.4,80.6 391.1,80.6 394.8,80.6 398.5,80.6 402.1,80.7 405.8,80.7 409.5,80.7 413.2,80.6 416.9,80.6 420.5,80.6 424.2,165.4 427.9,250.2 431.6,334.9 435.3,334.9 438.9,334.9 442.6,334.9 446.3,334.9 450.0,334.9 453.6,334.9 457.3,334.9 461.0,334.9 464.7,334.9 468.4,334.9 472.0,334.9 475.7,334.9 479.4,334.9 483.1,334.9 486.8,334.9 490.4,334.9 494.1,334.9 497.8,334.9 501.5,334.9 505.2,334.9 508.8,334.9 512.5,334.9 516.2,334.9 519.9,334.9 523.5,334.9 527.2,334.9 530.9,334.9 534.6,334.9 538.3,334.9 541.9,334.9 545.6,334.9 549.3,334.9 553.0,334.9 556.7,334.9 560.3,334.9 564.0,334.9 567.7,334.9 571.4,334.9 575.1,334.9 578.7,334.9 582.4,334.9 586.1,334.9 589.8,334.9 593.4,334.9 597.1,334.9 600.8,334.9 604.5,334.9 608.2,277.8 611.8,220.8 615.5,163.7 619.2,163.7 622.9,163.7 626.6,163.7 630.2,163.7 633.9,163.8 637.6,163.8 641.3,163.7 644.9,163.7 648.6,163.7 652.3,163.7 656.0,163.7 659.7,163.7 663.3,163.7 667.0,163.7 670.7,163.8 674.4,163.8 678.1,163.8 681.7,163.8 685.4,163.8 689.1,163.8 692.8,163.8 696.5,163.8 700.1,163.8 703.8,163.7 707.5,163.7 711.2,163.7 714.8,163.7 718.5,163.8 722.2,163.7 725.9,163.7 729.6,163.7 733.2,163.7 736.9,163.7 740.6,163.7 744.3,163.7 748.0,163.7 751.6,163.7 755.3,163.7 759.0,163.7 762.7,163.7 766.4,163.7 770.0,163.7 773.7,163.8 777.4,163.8 781.1,163.8 784.7,163.7 788.4,163.7 792.1,125.8 795.8,87.9 799.5,50.0 803.1,50.0 806.8,50.0 810.5,50.0 814.2,50.0 817.9,50.0 821.5,50.0 825.2,50.0 828.9,50.0 832.6,50.0 836.3,50.0 839.9,50.0 843.6,50.0 847.3,50.0 851.0,50.0 854.6,50.1 858.3,50.0 862.0,50.0 865.7,50.0 869.4,50.0 873.0,50.0 876.7,50.0 880.4,50.0 884.1,50.0 887.8,50.0 891.4,50.0 895.1,50.0 898.8,50.0 902.5,50.0 906.2,50.0 909.8,50.1 913.5,50.1 917.2,50.1 920.9,50.0 924.5,50.0 928.2,50.0 931.9,50.0 935.6,50.0 939.3,50.0 942.9,50.0 946.6,50.0 950.3,50.1 954.0,50.1 957.7,50.1 961.3,50.0 965.0,50.0 968.7,50.1 972.4,50.1 976.1,156.7 979.7,263.3 983.4,369.9 987.1,369.9 990.8,370.0 994.4,370.0 998.1,370.0 1001.8,370.0 1005.5,370.0 1009.2,369.9 1012.8,370.0 1016.5,370.0 1020.2,370.0 1023.9,370.0 1027.6,370.0 1031.2,370.0 1034.9,370.0 1038.6,370.0 1042.3,370.0 1046.0,370.0 1049.6,369.9 1053.3,370.0 1057.0,370.0 1060.7,370.0 1064.3,370.0 1068.0,370.0 1071.7,369.9 1075.4,369.9 1079.1,369.9 1082.7,370.0 1086.4,369.9 1090.1,370.0 1093.8,370.0 1097.5,370.0 1101.1,370.0 1104.8,370.0 1108.5,370.0 1112.2,370.0 1115.9,370.0 1119.5,370.0 1123.2,370.0 1126.9,370.0 1130.6,370.0 1134.2,370.0 1137.9,370.0 1141.6,370.0 1145.3,370.0 1149.0,370.0 1152.6,369.9 1156.3,370.0 1160.0,369.9" fill="none" stroke="#2f7d32" stroke-width="2"/>
<text x="70" y="406" font-size="14" fill="#2f7d32" font-family="sans-serif">R1</text>
<polyline points="60.0,216.4 63.7,216.4 67.4,216.4 71.0,216.4 74.7,216.4 78.4,216.4 82.1,216.4 85.8,216.4 89.4,216.4 93.1,216.4 96.8,216.4 100.5,216.4 104.1,216.4 107.8,216.4 111.5,216.4 115.2,216.4 118.9,216.4 122.5,216.4 126.2,216.4 129.9,216.4 133.6,216.4 137.3,216.4 140.9,216.4 144.6,216.4 148.3,216.4 152.0,216.4 155.7,216.4 159.3,216.4 163.0,216.4 166.7,216.4 170.4,216.4 174.0,216.4 177.7,216.4 181.4,216.4 185.1,216.4 188.8,216.4 192.4,216.4 196.1,216.4 199.8,216.4 203.5,216.4 207.2,216.4 210.8,216.4 214.5,216.4 218.2,216.4 221.9,216.4 225.6,216.4 229.2,216.4 232.9,216.4 236.6,216.4 240.3,160.9 243.9,105.5 247.6,50.0 251.3,50.0 255.0,50.0 258.7,50.0 262.3,50.0 266.0,50.0 269.7,50.0 273.4,50.0 277.1,50.0 280.7,50.0 284.4,50.0 288.1,50.0 291.8,50.0 295.5,50.0 299.1,50.0 302.8,50.0 306.5,50.0 310.2,50.0 313.8,50.0 317.5,50.0 321.2,50.0 324.9,50.0 328.6,50.0 332.2,50.0 335.9,50.0 339.6,50.0 343.3,50.0 347.0,50.0 350.6,50.0 354.3,50.0 358.0,50.0 361.7,50.0 365.4,50.0 369.0,50.0 372.7,50.0 376.4,50.0 380.1,50.0 383.7,50.0 387.4,50.0 391.1,50.0 394.8,50.0 398.5,50.0 402.1,50.0 405.8,50.0 409.5,50.0 413.2,50.0 416.9,50.0 420.5,50.0 424.2,99.8 427.9,149.5 431.6,199.2 435.3,199.2 438.9,199.2 442.6,199.2 446.3,199.2 450.0,199.2 453.6,199.3 457.3,199.2 461.0,199.2 464.7,199.3 468.4,199.3 472.0,199.3 475.7,199.2 479.4,199.2 483.1,199.3 486.8,199.3 490.4,199.3 494.1,199.2 497.8,199.2 501.5,199.2 505.2,199.3 508.8,199.3 512.5,199.3 516.2,199.3 519.9,199.2 523.5,199.2 527.2,199.2 530.9,199.2 534.6,199.2 538.3,199.2 541.9,199.2 545.6,199.2 549.3,199.2 553.0,199.3 556.7,199.3 560.3,199.3 564.0,199.2 567.7,199.2 571.4,199.2 575.1,199.2 578.7,199.2 582.4,199.2 586.1,199.2 589.8,199.2 593.4,199.2 597.1,199.3 600.8,199.2 604.5,199.2 608.2,216.5 611.8,233.7 615.5,251.0 619.2,251.0 622.9,251.0 626.6,251.0 630.2,251.0 633.9,251.0 637.6,251.0 641.3,251.0 644.9,250.9 648.6,250.9 652.3,250.9 656.0,251.0 659.7,251.0 663.3,251.0 667.0,251.0 670.7,251.0 674.4,251.0 678.1,251.0 681.7,250.9 685.4,251.0 689.1,251.0 692.8,251.0 696.5,251.0 700.1,251.0 703.8,251.0 707.5,251.0 711.2,251.0 714.8,251.0 718.5,251.0 722.2,251.0 725.9,251.0 729.6,251.0 733.2,251.0 736.9,251.0 740.6,251.0 744.3,251.0 748.0,250.9 751.6,250.9 755.3,251.0 759.0,251.0 762.7,250.9 766.4,250.9 770.0,251.0 773.7,251.0 777.4,251.0 781.1,251.0 784.7,250.9 788.4,250.9 792.1,205.7 795.8,160.5 799.5,115.3 803.1,115.3 806.8,115.3 810.5,115.3 814.2,115.3 817.9,115.3 821.5,115.3 825.2,115.3 828.9,115.3 832.6,115.3 836.3,115.3 839.9,115.3 843.6,115.3 847.3,115.3 851.0,115.3 854.6,115.3 858.3,115.3 862.0,115.3 865.7,115.3 869.4,115.3 873.0,115.3 876.7,115.3 880.4,115.3 884.1,115.3 887.8,115.3 891.4,115.3 895.1,115.4 898.8,115.4 902.5,115.3 906.2,115.3 909.8,115.3 913.5,115.3 917.2,115.3 920.9,115.3 924.5,115.3 928.2,115.3 931.9,115.3 935.6,115.3 939.3,115.3 942.9,115.3 946.6,115.3 950.3,115.3 954.0,115.3 957.7,115.3 961.3,115.3 965.0,115.3 968.7,115.3 972.4,115.3 976.1,200.2 979.7,285.1 983.4,370.0 987.1,370.0 990.8,370.0 994.4,370.0 998.1,370.0 1001.8,370.0 1005.5,370.0 1009.2,370.0 1012.8,370.0 1016.5,370.0 1020.2,370.0 1023.9,370.0 1027.6,370.0 1031.2,370.0 1034.9,370.0 1038.6,370.0 1042.3,370.0 1046.0,370.0 1049.6,370.0 1053.3,370.0 1057.0,370.0 1060.7,370.0 1064.3,370.0 1068.0,370.0 1071.7,370.0 1075.4,370.0 1079.1,370.0 1082.7,370.0 1086.4,370.0 1090.1,370.0 1093.8,370.0 1097.5,370.0 1101.1,370.0 1104.8,370.0 1108.5,370.0 1112.2,370.0 1115.9,370.0 1119.5,370.0 1123.2,370.0 1126.9,370.0 1130.6,370.0 1134.2,370.0 1137.9,370.0 1141.6,370.0 1145.3,370.0 1149.0,370.0 1152.6,370.0 1156.3,370.0 1160.0,370.0" fill="none" stroke="#1976d2" stroke-width="2"/>
<text x="230" y="406" font-size="14" fill="#1976d2" font-family="sans-serif">R2</text>
<polyline points="60.0,370.0 63.7,370.0 67.4,369.9 71.0,369.9 74.7,369.9 78.4,369.9 82.1,370.0 85.8,370.0 89.4,370.0 93.1,370.0 96.8,370.0 100.5,370.0 104.1,370.0 107.8,370.0 111.5,370.0 115.2,370.0 118.9,370.0 122.5,370.0 126.2,370.0 129.9,370.0 133.6,369.9 137.3,369.9 140.9,370.0 144.6,370.0 148.3,369.9 152.0,369.9 155.7,370.0 159.3,370.0 163.0,370.0 166.7,369.9 170.4,370.0 174.0,370.0 177.7,370.0 181.4,370.0 185.1,369.9 188.8,369.9 192.4,369.9 196.1,369.9 199.8,369.9 203.5,369.9 207.2,370.0 210.8,370.0 214.5,370.0 218.2,370.0 221.9,370.0 225.6,370.0 229.2,369.9 232.9,369.9 236.6,369.9 240.3,279.7 243.9,189.5 247.6,99.2 251.3,99.3 255.0,99.3 258.7,99.2 262.3,99.2 266.0,99.2 269.7,99.2 273.4,99.2 277.1,99.2 280.7,99.2 284.4,99.2 288.1,99.3 291.8,99.3 295.5,99.3 299.1,99.2 302.8,99.2 306.5,99.2 310.2,99.2 313.8,99.3 317.5,99.3 321.2,99.2 324.9,99.2 328.6,99.2 332.2,99.3 335.9,99.3 339.6,99.3 343.3,99.2 347.0,99.2 350.6,99.2 354.3,99.3 358.0,99.2 361.7,99.2 365.4,99.3 369.0,99.3 372.7,99.2 376.4,99.2 380.1,99.2 383.7,99.3 387.4,99.3 391.1,99.3 394.8,99.2 398.5,99.2 402.1,99.2 405.8,99.2 409.5,99.2 413.2,99.3 416.9,99.3 420.5,99.3 424.2,116.1 427.9,133.0 431.6,149.9 435.3,149.9 438.9,149.9 442.6,149.9 446.3,149.9 450.0,149.9 453.6,149.9 457.3,149.9 461.0,149.9 464.7,149.9 468.4,149.9 472.0,149.9 475.7,149.9 479.4,149.9 483.1,149.9 486.8,149.9 490.4,149.9 494.1,149.9 497.8,149.9 501.5,149.9 505.2,149.9 508.8,149.9 512.5,149.9 516.2,149.9 519.9,149.9 523.5,149.9 527.2,149.9 530.9,149.9 534.6,149.9 538.3,149.9 541.9,149.9 545.6,149.9 549.3,149.9 553.0,149.9 556.7,149.9 560.3,149.9 564.0,149.9 567.7,149.9 571.4,149.9 575.1,149.9 578.7,149.9 582.4,149.9 586.1,149.9 589.8,149.9 593.4,149.9 597.1,149.9 600.8,149.9 604.5,149.9 608.2,211.3 611.8,272.8 615.5,334.3 619.2,334.2 622.9,334.2 626.6,334.2 630.2,334.2 633.9,334.2 637.6,334.2 641.3,334.3 644.9,334.3 648.6,334.2 652.3,334.2 656.0,334.2 659.7,334.2 663.3,334.2 667.0,334.2 670.7,334.3 674.4,334.3 678.1,334.3 681.7,334.2 685.4,334.2 689.1,334.2 692.8,334.2 696.5,334.2 700.1,334.2 703.8,334.2 707.5,334.2 711.2,334.3 714.8,334.3 718.5,334.3 722.2,334.2 725.9,334.2 729.6,334.2 733.2,334.2 736.9,334.2 740.6,334.2 744.3,334.3 748.0,334.3 751.6,334.3 755.3,334.2 759.0,334.2 762.7,334.2 766.4,334.3 770.0,334.3 773.7,334.2 777.4,334.2 781.1,334.2 784.7,334.3 788.4,334.2 792.1,239.5 795.8,144.8 799.5,50.0 803.1,50.0 806.8,50.1 810.5,50.0 814.2,50.0 817.9,50.0 821.5,50.0 825.2,50.0 828.9,50.0 832.6,50.0 836.3,50.0 839.9,50.0 843.6,50.0 847.3,50.0 851.0,50.0 854.6,50.0 858.3,50.0 862.0,50.0 865.7,50.0 869.4,50.0 873.0,50.0 876.7,50.0 880.4,50.0 884.1,50.0 887.8,50.0 891.4,50.0 895.1,50.0 898.8,50.1 902.5,50.1 906.2,50.1 909.8,50.0 913.5,50.0 917.2,50.0 920.9,50.0 924.5,50.1 928.2,50.1 931.9,50.1 935.6,50.0 939.3,50.0 942.9,50.0 946.6,50.0 950.3,50.0 954.0,50.1 957.7,50.0 961.3,50.0 965.0,50.0 968.7,50.0 972.4,50.0 976.1,99.1 979.7,148.1 983.4,197.1 987.1,197.1 990.8,197.1 994.4,197.1 998.1,197.1 1001.8,197.1 1005.5,197.1 1009.2,197.1 1012.8,197.1 1016.5,197.1 1020.2,197.1 1023.9,197.1 1027.6,197.1 1031.2,197.1 1034.9,197.1 1038.6,197.1 1042.3,197.1 1046.0,197.1 1049.6,197.1 1053.3,197.1 1057.0,197.1 1060.7,197.1 1064.3,197.1 1068.0,197.1 1071.7,197.1 1075.4,197.1 1079.1,197.1 1082.7,197.1 1086.4,197.1 1090.1,197.1 1093.8,197.1 1097.5,197.1 1101.1,197.1 1104.8,197.1 1108.5,197.1 1112.2,197.1 1115.9,197.1 1119.5,197.1 1123.2,197.1 1126.9,197.1 1130.6,197.1 1134.2,197.1 1137.9,197.1 1141.6,197.1 1145.3,197.1 1149.0,197.1 1152.6,197.1 1156.3,197.1 1160.0,197.1" fill="none" stroke="#c55a11" stroke-width="2"/>
<text x="390" y="406" font-size="14" fill="#c55a11" font-family="sans-serif">R3</text>
</svg>